<svg viewBox="0 0 160 141" fill="none" xmlns="http://www.w3.org/2000/svg">
<path d="M104.479 109.632C105.5 108.745 106.761 108.398 107.815 108.677L107.617 110.228C106.757 110.103 106.033 110.38 105.448 110.888C104.724 111.518 104.558 112.015 104.96 112.477C105.302 112.869 105.662 112.862 107.042 112.123C108.395 111.406 109.491 111.081 110.538 112.285C111.501 113.393 111.116 114.923 109.912 115.97C108.961 116.797 107.952 117.046 106.853 116.945L106.99 115.324C107.732 115.384 108.366 115.232 108.924 114.746C109.578 114.177 109.553 113.708 109.319 113.438C108.985 113.054 108.617 113.159 107.451 113.775C106.286 114.39 104.924 114.992 103.771 113.665C102.763 112.504 102.813 111.081 104.479 109.632ZM99.9434 113.405L104.193 120.293L99.4114 123.243L98.5799 121.895L101.984 119.795L101.25 118.604L99.2718 119.825L98.4461 118.486L100.424 117.266L99.3979 115.603L95.8458 117.794L95.0143 116.447L99.9434 113.405ZM87.8406 119.582L92.2377 122.583C92.5314 122.789 92.9285 123.067 93.1025 123.222C92.991 122.942 92.5927 122.006 92.4251 121.587L91.1048 118.28L92.5869 117.688L95.5872 125.205L94.1483 125.779L89.8996 122.869C89.6058 122.663 89.2088 122.385 89.0347 122.231C89.1463 122.51 89.5445 123.446 89.7121 123.865L90.9804 127.044L89.4984 127.635L86.4981 120.118L87.8406 119.582ZM81.5218 128.021L80.1804 121.663L81.7641 121.329L83.1048 127.687L85.3787 127.208L85.708 128.769L79.5761 130.062L79.2467 128.501L81.5218 128.021ZM72.2394 122.457C74.3533 122.371 75.8604 123.86 75.9661 126.471C76.0718 129.082 74.6686 130.712 72.5547 130.798C70.452 130.883 68.9454 129.394 68.8397 126.784C68.7334 124.173 70.1372 122.542 72.2394 122.457ZM72.5244 129.191C73.6566 129.145 74.3702 128.202 74.3036 126.562C74.2371 124.921 73.4137 124.018 72.2815 124.064C71.1492 124.11 70.4356 125.053 70.5022 126.693C70.5688 128.333 71.3921 129.237 72.5244 129.191ZM56.581 120.913L58.4987 125.879C58.6236 126.216 58.793 126.669 58.8485 126.895C58.915 126.602 59.1182 125.605 59.2181 125.165L60.0082 121.693L61.5638 122.047L59.7688 129.939L58.2581 129.595L56.4111 124.788C56.2861 124.451 56.1168 123.998 56.0613 123.772C55.9947 124.065 55.7915 125.062 55.6917 125.502L54.9326 128.839L53.3769 128.485L55.172 120.593L56.581 120.913ZM49.4499 118.288C51.395 119.122 52.1133 121.115 51.0844 123.517C50.0555 125.919 48.0864 126.786 46.1413 125.953C44.2073 125.125 43.4885 123.131 44.5174 120.729C45.5463 118.327 47.5153 117.46 49.4499 118.288ZM46.8058 124.489C47.8476 124.935 48.8981 124.392 49.5445 122.883C50.1909 121.374 49.8371 120.203 48.7953 119.757C47.7536 119.311 46.7031 119.855 46.0566 121.364C45.4102 122.872 45.7641 124.043 46.8058 124.489ZM35.7845 109.957L35.1609 111.765L37.4791 113.605L39.0984 112.588L40.4566 113.667L32.9974 118.079L31.7664 117.101L34.3901 108.85L35.7845 109.957ZM34.1337 114.788C33.9655 115.26 33.7904 115.741 33.6672 116.026C33.9177 115.841 34.3463 115.561 34.7679 115.291L36.0882 114.464L34.6394 113.314L34.1337 114.788ZM29.5288 103.553L28.2949 106.562L29.3711 107.786L31.5591 105.862L32.6277 107.078L26.5495 112.422L24.0607 109.592C23.0528 108.446 22.8549 106.942 24.1483 105.804C25.0599 105.003 25.9766 104.889 26.96 105.395L28.299 102.155L29.5288 103.553ZM25.2654 108.579L26.6622 110.168L28.2254 108.794L26.828 107.205C26.3317 106.64 25.8044 106.565 25.2747 107.031C24.7276 107.512 24.7918 108.04 25.2654 108.579ZM25.1708 97.1515C26.181 98.8239 25.7349 100.634 23.7162 101.853L19.8272 104.203L18.9904 102.818L22.8596 100.481C23.9679 99.8108 24.3474 98.852 23.8155 97.9714C23.2835 97.0908 22.2715 96.9588 21.1632 97.6286L17.2742 99.9784L16.4374 98.5933L20.3066 96.2558C22.3153 95.0406 24.1069 95.3898 25.1708 97.1515ZM18.9769 82.5816L15.8201 85.7647L17.6426 86.5921L19.9334 85.9398L20.3766 87.4966L12.5927 89.7133L12.1495 88.1565L14.3626 87.5264C14.6517 87.4441 15.3553 87.2561 15.6035 87.1971C15.3939 87.1364 14.9559 86.9489 14.64 86.8105L11.3618 85.388L10.8263 83.5089L14.1664 85.0219L18.4455 80.7136L18.9769 82.5816ZM17.8996 75.2648C18.0905 77.2093 16.9074 78.6499 14.56 78.8806L10.038 79.3244L9.87971 77.7133L14.379 77.2712C15.6677 77.1445 16.4239 76.4432 16.3229 75.419C16.2225 74.3947 15.3664 73.84 14.0777 73.9667L9.55562 74.4105L9.39737 72.7994L13.8966 72.3574C16.2324 72.1291 17.6981 73.2169 17.8996 75.2648ZM17.8061 64.3095L14.7883 65.5229L14.661 67.148L17.5661 67.3758L17.44 68.9898L9.37109 68.358L9.6654 64.6003C9.78453 63.0785 10.7247 61.8879 12.442 62.0228C13.6526 62.1174 14.3726 62.6961 14.6955 63.753L17.9515 62.4537L17.8061 64.3095ZM11.2298 64.7574L11.0645 66.8666L13.1393 67.0289L13.3045 64.9197C13.3629 64.1705 13.0488 63.7396 12.3457 63.6847C11.6199 63.628 11.2858 64.0426 11.2298 64.7574ZM19.7909 54.5933L17.885 54.7474L17.1293 57.6093L18.7107 58.685L18.268 60.362L11.2339 55.2993L11.6356 53.7787L20.2458 52.8712L19.7909 54.5933ZM14.7036 55.0201C14.2038 55.0558 13.6934 55.0879 13.3816 55.0896C13.6514 55.2444 14.08 55.5253 14.4969 55.8026L15.7839 56.6809L16.2564 54.8923L14.7036 55.0201ZM22.4549 48.1069C21.8867 49.3343 20.8777 50.167 19.8015 50.3445L19.3477 48.8479C20.1839 48.6102 20.7311 48.0613 21.0564 47.3582C21.4593 46.4876 21.4073 45.9667 20.8514 45.7092C20.379 45.4908 20.0526 45.6455 19.0972 46.8847C18.1559 48.0928 17.2888 48.838 15.8412 48.1676C14.5086 47.5509 14.2342 45.9971 14.9039 44.5489C15.433 43.405 16.2517 42.765 17.2964 42.4076L17.8342 43.9434C17.1328 44.1921 16.6172 44.5904 16.3066 45.2619C15.9422 46.049 16.1571 46.4666 16.4823 46.6172C16.9442 46.8309 17.2368 46.5839 18.0485 45.5457C18.8601 44.5074 19.8563 43.4009 21.4511 44.139C22.8455 44.7848 23.3822 46.1028 22.4549 48.1069ZM27.8324 38.7545L25.0412 36.8146L23.1474 39.5399L25.9387 41.4797L25.0149 42.8088L18.3685 38.1904L19.2923 36.8613L21.8371 38.6295L23.7308 35.9042L21.186 34.1361L22.1098 32.807L28.7562 37.4254L27.8324 38.7545ZM30.9302 34.9939L24.988 29.499L26.087 28.3107L32.0292 33.8055L30.9302 34.9939ZM40.7691 26.435L37.7425 28.5232L33.1463 21.8616L36.2015 19.7542C37.4961 18.8613 38.741 18.915 39.5288 20.0572C39.9229 20.6283 39.9714 21.2689 39.7174 21.8377C40.4146 21.708 41.1492 21.9177 41.6549 22.6505C42.6201 24.0485 42.1968 25.4505 40.7691 26.435ZM36.9915 21.0207L35.2975 22.1898L36.1705 23.4558L37.9311 22.2412C38.4829 21.8604 38.5057 21.4657 38.2493 21.0943C37.9609 20.675 37.572 20.6201 36.9915 21.0207ZM38.755 23.4143L36.9851 24.6353L38.1734 26.358L39.9434 25.1369C40.5904 24.6902 40.6587 24.1378 40.2978 23.614C39.9036 23.0429 39.402 22.9676 38.755 23.4143ZM45.6701 23.5083L42.0181 16.2855L43.4628 15.555L47.1147 22.7778L45.6701 23.5083ZM54.8858 19.7121L50.6511 16.4864C50.3685 16.2651 49.986 15.9673 49.8207 15.8038C49.9177 16.0882 50.2669 17.0441 50.4117 17.4715L51.558 20.8432L50.0473 21.3565L47.4429 13.6934L48.9098 13.1947L53.0015 16.3223C53.2841 16.5436 53.6666 16.8415 53.8318 17.005C53.7349 16.72 53.3857 15.7647 53.2409 15.3372L52.1396 12.0969L53.6502 11.5836L56.2546 19.2467L54.8858 19.7121ZM70.073 23.3577C44.2727 23.3577 23.3577 44.2727 23.3577 70.073C23.3577 95.8733 44.2727 116.788 70.073 116.788C83.5749 116.788 95.7384 111.06 104.267 101.902H100.155C98.4146 103.547 96.5366 105.053 94.5577 106.391C92.2166 107.973 89.7139 109.331 87.1194 110.428C81.722 112.711 75.9866 113.869 70.073 113.869C64.1594 113.869 58.4239 112.711 53.0266 110.428C50.4321 109.331 47.9293 107.973 45.5883 106.391C43.2689 104.823 41.0873 103.024 39.1048 101.041C37.1223 99.0587 35.3226 96.8771 33.7553 94.5577C32.1734 92.2166 30.8152 89.7139 29.718 87.1194C27.4347 81.722 26.2774 75.9866 26.2774 70.073C26.2774 64.1594 27.4347 58.4239 29.718 53.0266C30.8152 50.4321 32.1734 47.9293 33.7553 45.5883C35.3226 43.2689 37.1223 41.0873 39.1048 39.1048C41.0873 37.1223 43.2689 35.3226 45.5883 33.7553C47.9293 32.1734 50.4321 30.8152 53.0266 29.718C58.4239 27.4347 64.1594 26.2774 70.073 26.2774C75.9866 26.2774 81.722 27.4347 87.1194 29.718C89.7139 30.8152 92.2166 32.1734 94.5577 33.7553C96.8771 35.3226 99.0587 37.1223 101.041 39.1048C102.589 40.6528 104.025 42.3223 105.326 44.0835H108.896C100.513 31.5848 86.254 23.3577 70.073 23.3577ZM132.516 101.902H129.218C128.16 103.863 127.005 105.773 125.759 107.617C123.356 111.173 120.597 114.518 117.558 117.557C114.519 120.597 111.174 123.356 107.618 125.759C104.027 128.184 100.19 130.267 96.212 131.95C92.1606 133.664 87.9212 134.979 83.6105 135.862C79.1866 136.767 74.6318 137.226 70.0736 137.226C65.5153 137.226 60.9612 136.767 56.5366 135.862C52.2266 134.98 47.9866 133.664 43.9352 131.95C39.9568 130.267 36.1191 128.184 32.5296 125.759C28.9734 123.356 25.6286 120.597 22.5892 117.557C19.5498 114.518 16.7901 111.173 14.3877 107.617C11.9626 104.027 9.87971 100.19 8.19679 96.2114C6.4835 92.16 5.1673 87.9206 4.28496 83.6099C3.37869 79.1854 2.91971 74.6312 2.91971 70.073C2.91971 65.5147 3.37869 60.9606 4.2838 56.5361C5.16555 52.226 6.48175 47.986 8.19562 43.9346C9.87854 39.9562 11.9615 36.1185 14.3866 32.529C16.7895 28.9723 19.5486 25.628 22.588 22.5886C25.6274 19.5492 28.9723 16.7895 32.5285 14.3872C36.1185 11.962 39.9556 9.87912 43.934 8.1962C47.9854 6.48292 52.2248 5.16672 56.5355 4.28438C60.9606 3.37869 65.5147 2.91971 70.073 2.91971C74.6312 2.91971 79.1854 3.37869 83.6099 4.2838C87.92 5.16555 92.16 6.48175 96.2114 8.19562C100.19 9.87854 104.027 11.9615 107.617 14.3866C111.174 16.7895 114.518 19.5486 117.557 22.588C120.597 25.6274 123.356 28.9723 125.759 32.5285C128.184 36.1185 130.267 39.9556 131.95 43.934C131.971 43.9837 131.991 44.0333 132.012 44.0829H135.167C124.844 18.2511 99.5901 0 70.073 0C31.3728 0 0 31.3728 0 70.073C0 108.773 31.3728 140.146 70.073 140.146C97.3127 140.146 120.922 124.603 132.516 101.902ZM90.3755 55.5317C96.1991 59.8201 102.221 64.2546 114.161 64.2546C126.1 64.2546 132.122 59.8201 137.946 55.5317C143.64 51.3384 149.02 47.3775 160 47.3775V44.4578C148.061 44.4578 142.039 48.8923 136.215 53.1807C130.52 57.374 125.141 61.3349 114.161 61.3349C103.18 61.3349 97.8015 57.374 92.1063 53.1807C86.2826 48.8923 80.2604 44.4578 68.3212 44.4578V47.3775C79.3016 47.3775 84.6803 51.3378 90.3755 55.5317ZM90.3755 73.0499C96.1991 77.3384 102.221 81.7728 114.161 81.7728C126.1 81.7728 132.122 77.3384 137.946 73.0499C143.64 68.8566 149.02 64.8958 160 64.8958V61.9761C148.061 61.9761 142.039 66.4105 136.215 70.699C130.52 74.8923 125.141 78.8531 114.161 78.8531C103.18 78.8531 97.8015 74.8923 92.1063 70.699C86.2826 66.4105 80.2604 61.9761 68.3212 61.9761V64.8958C79.3016 64.8958 84.6803 68.8561 90.3755 73.0499ZM90.3755 90.5185C96.1991 94.807 102.221 99.2415 114.161 99.2415C126.1 99.2415 132.122 94.807 137.946 90.5185C143.64 86.3253 149.02 82.3644 160 82.3644V79.4447C148.061 79.4447 142.039 83.8791 136.215 88.1676C130.52 92.3609 125.141 96.3218 114.161 96.3218C103.18 96.3218 97.8015 92.3609 92.1063 88.1676C86.2826 83.8791 80.2604 79.4447 68.3212 79.4447V82.3644C79.3016 82.3644 84.6803 86.3253 90.3755 90.5185Z" fill="black"/>
</svg>
