<svg viewBox="0 0 200 22" fill="none" xmlns="http://www.w3.org/2000/svg">
<g clip-path="url(#clip0)">
<path d="M4.50114 18.7149V11.1434H0.722483V9.98484H4.50114V7.07484H1.80514V6.10484C1.51743 6.38976 1.20414 6.67259 0.914293 6.93237L0 6.0336C2.04597 4.28216 3.99604 1.93991 5.00623 0.0229492L6.4512 0.140271C6.40218 0.234548 6.33185 0.328824 6.28283 0.425196C7.79813 1.89172 8.97883 3.21788 9.8441 4.44766L8.78489 5.22911C8.01552 4.06846 6.9563 2.81563 5.65626 1.46643C4.6695 2.95809 3.3929 4.54194 1.99695 5.91419H8.5675V7.07274H5.82462V9.98275H9.41146V11.1413H5.82462V18.4781C7.10122 18.2414 8.37569 18.0046 9.38589 17.8161L9.45835 18.9516C6.97974 19.4712 3.12863 20.2526 0.963311 20.6318L0.603135 19.3769C1.58776 19.2344 3.00928 18.9746 4.50114 18.7149ZM1.95007 12.7754C2.60009 14.3132 3.03273 16.0395 3.1542 17.2714C2.60009 17.4599 2.35926 17.5312 2.14401 17.6024C2.02466 16.3475 1.61546 14.5981 0.965442 13.1316L1.95007 12.7754ZM9.50737 12.9891C9.12162 14.1959 8.54406 15.8991 7.89404 17.3656L6.9563 17.0116C7.5573 15.4969 8.11142 13.8167 8.42471 12.6351L9.50737 12.9891ZM20.9627 13.5338C20.0953 14.9543 18.9657 16.2301 17.6657 17.3656C18.4116 19.092 19.3025 20.0641 20.3382 20.1101C20.8668 20.1332 21.1076 19.6367 21.2525 17.4138L22.4311 17.793C22.0944 20.8916 21.3953 21.6249 20.0484 21.5075C18.6524 21.3902 17.5208 20.2065 16.6065 18.2183C14.8013 19.5675 12.7085 20.6549 10.4941 21.4824L9.36245 20.6779C11.8901 19.7791 14.2003 18.6206 16.1504 17.0807C15.6687 15.8258 15.283 14.3362 14.9462 12.633L10.1318 13.1777L9.96345 12.0652L14.7523 11.5687C14.633 10.7642 14.488 9.91361 14.3921 9.03788L10.8777 9.41709L10.7328 8.35281L14.2706 7.97361C14.1747 7.2173 14.1023 6.41281 14.0298 5.60831L10.0338 6.05665L9.86755 4.94419L13.9595 4.49375C13.8401 3.07332 13.7677 1.6068 13.7187 0.06904H15.1146C15.1636 1.55861 15.2105 2.97904 15.3064 4.35129L21.8535 3.64107L21.9984 4.7284L15.3789 5.46166C15.4513 6.26615 15.5238 7.07065 15.5963 7.82695L21.3719 7.21101L21.5168 8.25225L15.7156 8.89123C15.835 9.76696 15.9564 10.6175 16.0758 11.422L22.1412 10.76L22.2862 11.8243L16.2932 12.4863C16.5574 13.8816 16.8707 15.1135 17.2075 16.1526C18.1942 15.2308 19.0616 14.1896 19.7585 13.0059L20.9627 13.5338ZM17.4483 0.0480896C18.8677 0.781352 20.0484 1.49157 20.8902 2.27302L20.0484 3.07751C19.23 2.29606 18.1239 1.53975 16.7279 0.829538L17.4483 0.0480896Z" fill="black"/>
<path d="M25.4148 6.5072C27.2924 7.45415 28.8077 8.4472 29.8925 9.4172L28.9782 10.4102C27.9424 9.36901 26.4506 8.37597 24.671 7.45206L25.4148 6.5072ZM28.9058 13.4145L29.9415 14.1478C29.0038 16.5131 27.4395 19.7541 26.3803 21.4825L25.1761 20.7492C26.2822 19.0921 27.9659 15.805 28.9058 13.4145ZM26.3057 0.165527C28.0874 1.0643 29.5068 1.96307 30.517 2.88698L29.6027 3.85698C28.6159 2.91002 27.2434 1.98821 25.5597 1.11248L26.3057 0.165527ZM31.6252 21.1515L30.615 20.4895C33.0467 18.715 35.2611 16.3497 36.6314 13.5339H34.0079C33.0446 14.9292 31.9129 16.1842 30.7343 17.2254L29.6751 16.5864C31.5293 14.9774 33.262 12.895 34.3446 10.5527H30.615V9.46329H46.5714V10.5527H35.6447C35.3804 11.1917 35.0671 11.8307 34.7069 12.4215H44.3592H44.9133H45.6827C45.2501 18.0278 44.7919 20.8205 43.999 21.2709C43.7348 21.4595 43.3725 21.5537 42.9164 21.5537C42.3878 21.5768 41.3031 21.5537 40.653 21.5056L40.5081 20.3219C41.1091 20.37 42.1214 20.37 42.5775 20.37C42.7693 20.347 42.9633 20.3219 43.0826 20.2276C43.5643 19.8966 43.95 17.8623 44.2868 13.5318H41.9275C40.9642 16.7268 39.1356 19.4943 36.9213 21.5516L35.9111 20.8896C38.0039 18.9727 39.7387 16.49 40.653 13.5318H37.9102C36.5099 16.5843 34.1763 19.2345 31.6252 21.1515ZM44.5489 0.61596V7.64271H32.6354V0.61596H44.5489ZM33.9845 3.66633H43.1295V1.63205H33.9845V3.66633ZM33.9845 6.64756H43.1295V4.54205H33.9845V6.64756Z" fill="black"/>
<path d="M50.0602 12.8468C50.0602 7.61762 54.2715 2.67334 60.241 2.67334C66.4983 2.67334 69.4841 6.12805 69.4841 11.0241C69.4841 15.6144 67.2463 19.1403 60.7227 20.5126L60.0492 19.1634C66.0912 18.0739 67.9923 15.0697 67.9923 11.0241C67.9923 6.7419 65.3197 4.04559 60.4584 3.9974C60.1707 13.0836 57.2573 19.2094 53.9838 19.2094C51.8419 19.2094 50.0602 16.2282 50.0602 12.8699V12.8468ZM51.4327 12.8468C51.4327 15.3546 52.6113 17.7199 54.0072 17.7199C56.1491 17.7199 58.8451 12.5137 59.0369 4.09168C54.3695 4.70762 51.4327 8.58762 51.4327 12.8468Z" fill="black"/>
<path d="M87.4865 6.55335C87.4141 7.09806 87.3182 7.61762 87.1988 8.13929C90.6408 8.80132 92.4693 10.932 92.4693 13.9823C92.4693 17.6738 90.2316 20.2046 84.7927 20.9609L84.2641 19.7311C89.0061 19.1864 91.0755 17.2003 91.0755 14.0054C91.0755 11.6401 89.6796 9.91169 86.8877 9.32089C85.8775 12.9411 83.9764 15.8029 81.7621 17.6026C81.907 18.1703 82.0754 18.715 82.2672 19.2346L80.9927 19.7311C80.8478 19.3289 80.7285 18.8805 80.607 18.4301C79.2345 19.2828 77.7916 19.7311 76.3701 19.7311C74.2517 19.7311 73.3608 18.4783 73.3608 16.3958C73.3608 13.2009 75.9353 10.1736 79.7865 8.75313C79.8355 7.49821 79.9314 6.19719 80.0507 4.89617H73.672V3.66639H80.1935C80.3129 2.6482 80.4578 1.63211 80.6262 0.662109L81.9987 0.779431C81.8303 1.70125 81.6854 2.67334 81.5405 3.66639H91.9621V4.89617H81.3955C81.2762 6.07987 81.1781 7.23842 81.1313 8.32784C82.2139 8.06806 83.3946 7.90255 84.6222 7.90255C85.0548 7.90255 85.4896 7.92559 85.8988 7.95074C85.9947 7.45421 86.0672 6.93255 86.1396 6.41298L87.4865 6.55335ZM74.6332 16.3246C74.6332 17.7199 75.1617 18.4301 76.6067 18.4301C77.8343 18.4301 79.1109 17.9818 80.3129 17.1521C79.9271 15.2352 79.7353 13.0123 79.7353 10.5989C79.7353 10.4103 79.7588 10.2197 79.7588 10.0311C76.6791 11.3321 74.6332 13.7707 74.6332 16.3246ZM84.5732 9.10929C83.3456 9.10929 82.167 9.2748 81.0844 9.58277C81.0844 9.89074 81.0609 10.1987 81.0609 10.5046C81.0609 12.6101 81.2059 14.527 81.4936 16.2303C83.2497 14.5983 84.7671 12.1366 85.6089 9.13233C85.2722 9.10929 84.9355 9.10929 84.5732 9.10929Z" fill="black"/>
<path d="M111.554 1.79736L112.324 2.81555C109.892 4.87287 106.139 8.11599 104.116 9.89048C105.657 9.20331 107.222 8.89743 109.027 8.89743C112.756 8.89743 114.875 11.4282 114.875 14.5037C114.875 18.455 111.697 20.6778 106.427 20.6778C103.226 20.6778 101.301 19.3998 101.301 17.4368C101.301 15.5911 103.057 14.2419 105.489 14.2419C108.208 14.2419 109.726 16.2049 110.063 18.9494C112.253 18.2392 113.455 16.7957 113.455 14.5498C113.455 12.0882 111.723 10.079 108.641 10.079C107.028 10.079 105.08 10.4582 103.298 11.2858C101.879 11.9709 99.3511 13.8417 97.6909 15.3082L96.7275 14.244C100.289 11.5937 106.932 5.84497 109.773 3.21989C107.318 3.43359 101.855 3.62214 99.1593 3.66823L99.0868 2.34417C102.047 2.34207 108.426 2.10533 111.554 1.79736ZM105.489 15.4025C103.733 15.4025 102.578 16.2301 102.578 17.4368C102.578 18.6205 103.878 19.4711 106.284 19.4711C107.222 19.4711 108.089 19.3998 108.858 19.2574C108.641 17.0115 107.535 15.4025 105.489 15.4025Z" fill="black"/>
<path d="M132.18 1.3952C129.917 3.85686 124.646 8.42195 121.471 10.5987C121.279 10.716 121.207 10.8585 121.207 10.9779C121.207 11.1203 121.302 11.2377 121.424 11.3319C126.14 14.3614 130.569 17.6024 133.12 20.1562L131.893 21.1975C129.318 18.453 124.48 14.8809 119.883 11.9709C119.474 11.7111 119.306 11.4032 119.306 11.024C119.306 10.693 119.523 10.2907 119.956 10.0058C123.18 7.8521 128.885 2.90781 131.002 0.448242L132.18 1.3952Z" fill="black"/>
<path d="M139.111 13.1778C141.639 11.4034 144.814 10.1023 147.536 10.1023C151.265 10.1023 153.505 11.7595 153.505 14.8099C153.505 18.4762 150.328 20.8666 142.796 20.8666C142.555 20.8666 142.242 20.8666 141.954 20.8436L141.641 19.5195C142.073 19.5426 142.579 19.5677 142.917 19.5677C149.488 19.5677 152.039 17.6989 152.039 14.835C152.039 12.4215 150.426 11.3091 147.225 11.3091C144.65 11.3091 141.617 12.6813 138.8 14.9754L137.668 14.5019C137.668 9.50944 138.222 7.04987 140.051 4.49393L141.328 4.96741C139.616 7.33479 139.111 9.53458 139.111 13.1778ZM139.665 1.96313L140.025 0.662109C143.275 1.15863 148.305 2.29414 150.566 3.14682L150.181 4.40175C148.041 3.59725 142.77 2.36537 139.665 1.96313Z" fill="black"/>
<path d="M160.964 0.970215C160.747 6.15124 160.724 11.1207 160.724 13.509C160.724 17.7913 162.265 19.4484 165.73 19.4484C169.148 19.4484 171.746 17.697 173.479 12.208L174.826 12.847C172.731 18.9268 169.675 20.8437 165.681 20.8437C161.229 20.8437 159.302 18.336 159.302 13.5572C159.302 11.2149 159.375 6.12819 159.398 0.970215H160.964Z" fill="black"/>
<path d="M182.383 21.5768H181.06V8.3529C180.265 9.7482 179.4 11.0974 178.436 12.3502L177.499 11.3802C180.024 8.06798 182.047 3.97428 183.057 0L184.38 0.284925C183.899 2.08246 183.225 3.92819 182.383 5.72573V21.5768ZM189.578 16.8923C190.516 15.7086 190.925 14.3845 191.023 12.8928H185.248V4.6845H191.049V2.22493H184.333V1.04123H199.834V2.22493H192.421V4.68659H198.559V12.897H192.398C192.302 14.6715 191.797 16.2805 190.665 17.7009C193.048 19.2617 196.226 20.0202 200.004 20.2799L199.162 21.5349C195.407 21.1557 192.255 20.2799 189.8 18.6018C188.621 19.7143 186.936 20.7073 184.649 21.56C184.576 21.4657 184.529 21.3715 183.734 20.4957C185.998 19.7143 187.609 18.8155 188.741 17.7994C187.562 16.7812 186.599 15.5284 185.829 13.9906L187.08 13.6114C187.703 14.9292 188.545 15.9935 189.578 16.8923ZM186.546 8.28167H191.047V5.74878H186.546V8.28167ZM186.546 11.8307H191.047V9.20349H186.546V11.8307ZM197.208 8.28167V5.74878H192.419V8.27958H197.208V8.28167ZM197.208 11.8307V9.20349H192.419V11.8307H197.208Z" fill="black"/>
</g>
<defs>
<clipPath id="clip0">
<rect width="200" height="21.5768" fill="white"/>
</clipPath>
</defs>
</svg>
