<svg width="100" height="93" xmlns="http://www.w3.org/2000/svg"><g fill="none"><path fill="#1A274B" d="M20.463 17.596L10.264.022 0 17.574l9.383.022L9.361 30.3l-8.854-.02v1.702H9.36v11.33L.154 46.02l.463 1.615 19.647-5.741-.484-1.616-8.723 2.554.022-10.85 8.855.022v-1.703h-8.855V17.596zm25.66 6.527v-1.68l-15.44-.023-.793-4.802h12.203v-1.681l-12.49-.022-2.158-13.339-1.696.284 2.136 13.055h-5.22v1.68l5.507.023.77 4.802-6.277-.021V24.1h6.564l2.093 12.815-8.679 2.533.485 1.615 8.458-2.467 1.476 9.06 1.696-.284-1.52-9.256 12.379-3.624-.485-1.616-12.18 3.537L30.947 24.1z"/><ellipse fill="#1A274B" transform="rotate(-89.933 4.167 37.135)" cx="4.167" cy="37.135" rx="1.784" ry="1.768"/><ellipse fill="#1A274B" transform="rotate(-89.932 16.268 37.15)" cx="16.268" cy="37.15" rx="1.784" ry="1.768"/><ellipse fill="#1A274B" transform="rotate(-89.932 35.337 6.347)" cx="35.337" cy="6.347" rx="3.789" ry="3.755"/><path d="M76.63 24.08l23.26.021v-1.68l-21.828-.022 2.114-2.49 13.568.023V2.38h-1.696L73.04 2.358l-.022 17.552h4.934l-2.115 2.489h-8.965v1.68h7.533l-7.533 8.842 1.3 1.092 3.898-4.585h6.542l-.022 16.046h1.696l.022-16.046h6.234l-.022 16.046h1.696l.022-16.046 9.912.022-.022 16.046h1.696l.022-17.749H98.15l-10.44-.022h-1.19l-13.062-.021 3.172-3.624zM92.07 9.868l-17.312-.022v-5.83l17.312.023v5.829zm-17.334 8.339v-6.68l17.312.022v6.68l-12.643-.022h-4.67z" fill="#1A274B"/><ellipse fill="#1A274B" transform="rotate(-89.932 63.804 6.084)" cx="63.804" cy="6.084" rx="3.789" ry="3.755"/><ellipse fill="#1A274B" transform="rotate(-89.932 57.452 16.124)" cx="57.452" cy="16.124" rx="3.789" ry="3.755"/><ellipse fill="#1A274B" transform="rotate(-89.932 59.983 39.178)" cx="59.983" cy="39.178" rx="6.366" ry="6.309"/><path fill="#9B4124" d="M2.29 75.644l15.684-18.381-1.234-1.048L1.057 74.618 0 75.841 19.648 92.3l1.057-1.244z"/><ellipse fill="#9B4124" transform="rotate(-44.935 22.834 59.09)" cx="22.834" cy="59.089" rx="2.974" ry="2.947"/><ellipse fill="#9B4124" transform="rotate(-44.935 26.082 66.496)" cx="26.082" cy="66.496" rx="2.974" ry="2.947"/><ellipse fill="#9B4124" transform="rotate(-44.935 49.607 59.142)" cx="49.607" cy="59.142" rx="2.974" ry="2.947"/><path d="M54.427 70.623l-14.053-.022.022-14.43h-1.541l-.022 14.43v1.529l15.616.021-.022 20.609c6.168 0 11.168-4.934 11.19-11.047-.022-6.112-5.022-11.068-11.19-11.09zm24.67 11.09l.022-25.52h-1.564l-.022 25.52c0 6.113 5 11.09 11.167 11.09 6.168 0 11.19-4.955 11.19-11.068l-20.793-.022z" fill="#9B4124"/></g></svg>